<svg width="120" height="58" viewBox="0 0 120 58" fill="none" xmlns="http://www.w3.org/2000/svg">
<path d="M10.5704 26C10.1318 26 9.74999 25.8538 9.42508 25.5614C9.10017 25.269 8.93772 24.9197 8.93772 24.5135V10.4288C8.93772 10.0226 9.09205 9.67336 9.40071 9.38094C9.72562 9.08852 10.1155 8.94232 10.5704 8.94232H17.1254C18.685 8.94232 19.9277 9.38094 20.8537 10.2582C21.796 11.1192 22.2671 12.2807 22.2671 13.7428C22.2671 14.4414 22.0803 15.1075 21.7066 15.741C21.333 16.3583 20.8375 16.8376 20.2202 17.1787V17.2518C21.0649 17.5443 21.731 18.0235 22.2183 18.6896C22.722 19.3556 22.9738 20.1192 22.9738 20.9802C22.9738 21.9549 22.7463 22.824 22.2914 23.5876C21.8366 24.3511 21.203 24.944 20.3907 25.3664C19.5785 25.7888 18.6525 26 17.6128 26H10.5704ZM17.0767 16.1065C17.6128 16.1065 18.0676 15.8872 18.4413 15.4486C18.8312 15.01 19.0261 14.482 19.0261 13.8647C19.0261 13.1986 18.8474 12.6706 18.49 12.2807C18.1489 11.8909 17.6778 11.6959 17.0767 11.6959H12.1056V16.1065H17.0767ZM17.564 23.2464C18.2301 23.2464 18.7581 23.0515 19.148 22.6616C19.5379 22.2554 19.7328 21.7031 19.7328 21.0045C19.7328 20.3222 19.5379 19.7943 19.148 19.4206C18.7743 19.0307 18.2463 18.8358 17.564 18.8358H12.1056V23.2464H17.564ZM25.3338 10.4288C25.3338 10.0226 25.4882 9.67336 25.7968 9.38094C26.1217 9.08852 26.5116 8.94232 26.9665 8.94232H37.8347C37.8347 9.91704 37.6641 10.6318 37.323 11.0867C36.9981 11.5253 36.462 11.7446 35.7147 11.7446H28.5992V15.9847H35.0811C35.0811 16.9594 34.9105 17.6742 34.5694 18.1291C34.2445 18.5677 33.7084 18.787 32.9611 18.787H28.5992V23.1977H36.2264C36.9574 23.1977 37.4854 23.4251 37.8103 23.88C38.1515 24.3186 38.3221 25.0253 38.3221 26H26.9665C26.5116 26 26.1217 25.8619 25.7968 25.5857C25.4882 25.2933 25.3338 24.9359 25.3338 24.5135V10.4288ZM45.8002 11.769H39.9275C39.9275 9.88455 40.7804 8.94232 42.4861 8.94232H54.9383C54.9383 10.8268 54.0772 11.769 52.3552 11.769H49.0655V23.8069C49.0655 24.5866 48.7894 25.1877 48.237 25.6101C47.6847 26.0162 46.8724 26.2193 45.8002 26.2193V11.769ZM61.53 11.769H55.6573C55.6573 9.88455 56.5102 8.94232 58.216 8.94232H70.6681C70.6681 10.8268 69.8071 11.769 68.085 11.769H64.7953V23.8069C64.7953 24.5866 64.5192 25.1877 63.9668 25.6101C63.4145 26.0162 62.6022 26.2193 61.53 26.2193V11.769ZM73.2486 11.1598C73.2486 10.3963 73.5329 9.80332 74.1015 9.38094C74.6701 8.94232 75.4742 8.723 76.5139 8.723V23.7825C76.5139 24.5623 76.2296 25.1634 75.6611 25.5857C75.0925 26.0081 74.2883 26.2193 73.2486 26.2193V11.1598ZM79.8528 11.306C79.8528 10.51 80.1208 9.88455 80.6569 9.42968C81.193 8.95856 81.9159 8.723 82.8257 8.723L91.0621 21.5894L91.3058 21.3944L90.3067 19.7374V8.723C91.3626 8.723 92.1587 8.92607 92.6947 9.33221C93.2471 9.73834 93.5233 10.3394 93.5233 11.1354V24.0018C93.5233 24.6029 93.2633 25.1227 92.7435 25.5614C92.2399 26 91.655 26.2193 90.989 26.2193L82.3139 12.6463L82.0702 12.8656L83.0693 14.5226V23.8069C83.0693 24.6029 82.7932 25.204 82.2408 25.6101C81.7047 26.0162 80.9087 26.2193 79.8528 26.2193V11.306ZM103.267 26.2193C101.821 26.2193 100.53 25.9431 99.3924 25.3908C98.2714 24.8385 97.3942 24.0668 96.7606 23.0758C96.127 22.0849 95.8103 20.9558 95.8103 19.6887V15.2049C95.8103 13.9378 96.1189 12.8168 96.7362 11.8421C97.3698 10.8512 98.2389 10.0876 99.3436 9.55152C100.448 8.99918 101.715 8.723 103.145 8.723C104.575 8.723 105.842 8.94232 106.946 9.38094C108.067 9.80332 108.937 10.3963 109.554 11.1598C110.171 11.9233 110.48 12.8006 110.48 13.7916C110.48 14.3927 110.277 14.8638 109.871 15.2049C109.481 15.5461 108.953 15.7167 108.287 15.7167C107.962 15.7167 107.604 15.6679 107.215 15.5704C107.247 15.1806 107.263 14.7988 107.263 14.4251C107.263 13.5641 106.881 12.8656 106.118 12.3295C105.354 11.7934 104.363 11.5253 103.145 11.5253C101.943 11.5253 100.96 11.8665 100.197 12.5488C99.4492 13.2311 99.0756 14.1165 99.0756 15.2049V19.6887C99.0756 20.7771 99.4655 21.6706 100.245 22.3692C101.025 23.0677 102.032 23.417 103.267 23.417C104.469 23.417 105.444 23.1408 106.191 22.5885C106.955 22.0199 107.336 21.2888 107.336 20.3953V19.6399H105.241C104.623 19.6399 104.12 19.4044 103.73 18.9332C103.34 18.4459 103.145 17.8204 103.145 17.0569H109.067C109.521 17.0569 109.887 17.195 110.163 17.4712C110.439 17.7473 110.577 18.1129 110.577 18.5677V20.4684C110.577 21.5894 110.269 22.5885 109.651 23.4657C109.034 24.3267 108.165 25.0009 107.044 25.4883C105.939 25.9756 104.68 26.2193 103.267 26.2193Z" fill="url(#paint0_linear_1_39)"/>
<path d="M1.43772 35.873C1.43772 35.4507 1.59205 35.1014 1.90071 34.8252C2.20938 34.5328 2.59927 34.3866 3.07038 34.3866H9.84472C11.0144 34.3866 12.046 34.6221 12.9395 35.0933C13.8492 35.5481 14.5478 36.2061 15.0351 37.0671C15.5387 37.9118 15.7905 38.8947 15.7905 40.0156C15.7905 41.1528 15.5469 42.1519 15.0595 43.0129C14.5721 43.8577 13.8817 44.5156 12.9882 44.9867C12.0947 45.4416 11.0469 45.669 9.84472 45.669H4.70305V49.2511C4.70305 50.0309 4.41875 50.632 3.85016 51.0544C3.29782 51.4605 2.49367 51.6636 1.43772 51.6636V35.873ZM9.84472 42.8423C10.7057 42.8423 11.3718 42.5905 11.8429 42.0869C12.314 41.5833 12.5496 40.8848 12.5496 39.9913C12.5496 39.114 12.3059 38.4317 11.8185 37.9443C11.3474 37.457 10.6895 37.2133 9.84472 37.2133H4.70305V42.8423H9.84472ZM17.3033 51.6636C16.6047 51.5824 16.0524 51.3387 15.6462 50.9325C15.2563 50.5264 15.0614 50.0147 15.0614 49.3974C15.0614 48.9262 15.1751 48.4389 15.4026 47.9353L20.9829 35.2395C21.2915 34.5247 21.8276 34.1673 22.5911 34.1673C23.3384 34.1673 23.8664 34.5247 24.1751 35.2395L29.7554 47.9353C29.9828 48.4714 30.0965 48.9587 30.0965 49.3974C30.0965 50.0147 29.8935 50.5264 29.4873 50.9325C29.0974 51.3387 28.5451 51.5824 27.8303 51.6636L25.7834 47.0336H19.3746L17.3033 51.6636ZM24.7843 44.2557L22.1038 37.5788L21.8114 37.7007L22.3962 39.2115L20.3493 44.2557H24.7843ZM32.469 35.873C32.469 35.4507 32.6233 35.1014 32.932 34.8252C33.2407 34.5328 33.6305 34.3866 34.1017 34.3866H40.6079C42.3625 34.3866 43.7189 34.8496 44.6774 35.7756C45.6521 36.7016 46.1395 38.0012 46.1395 39.6745C46.1395 40.633 45.9446 41.4452 45.5547 42.1113C45.1648 42.7611 44.5718 43.281 43.7758 43.6708V43.7439C45.2054 44.3775 45.9202 45.5797 45.9202 47.3504V49.2511C45.9202 50.0309 45.644 50.632 45.0917 51.0544C44.5393 51.4605 43.7271 51.6636 42.6549 51.6636V47.4966C42.6549 46.6356 42.4843 46.0021 42.1431 45.5959C41.802 45.1898 41.2821 44.9867 40.5836 44.9867H35.6856V49.2511C35.6856 50.0472 35.4094 50.6482 34.8571 51.0544C34.321 51.4605 33.5249 51.6636 32.469 51.6636V35.873ZM40.4374 42.2088C41.2171 42.2088 41.8182 41.9894 42.2406 41.5508C42.663 41.0959 42.8742 40.4624 42.8742 39.6501C42.8742 37.9931 42.0619 37.1646 40.4374 37.1646H35.6856V42.2088H40.4374ZM50.5001 51.6636C49.8015 51.5824 49.2492 51.3387 48.843 50.9325C48.4531 50.5264 48.2582 50.0147 48.2582 49.3974C48.2582 48.9262 48.3719 48.4389 48.5994 47.9353L54.1797 35.2395C54.4883 34.5247 55.0244 34.1673 55.788 34.1673C56.5352 34.1673 57.0632 34.5247 57.3719 35.2395L62.9522 47.9353C63.1796 48.4714 63.2933 48.9587 63.2933 49.3974C63.2933 50.0147 63.0903 50.5264 62.6841 50.9325C62.2942 51.3387 61.7419 51.5824 61.0271 51.6636L58.9802 47.0336H52.5714L50.5001 51.6636ZM57.9811 44.2557L55.3006 37.5788L55.0082 37.7007L55.593 39.2115L53.5461 44.2557H57.9811ZM67.2985 51.4443C66.8436 51.4443 66.4537 51.3062 66.1288 51.03C65.8201 50.7376 65.6658 50.3802 65.6658 49.9578V35.873C65.6658 35.4507 65.8201 35.1014 66.1288 34.8252C66.4374 34.5328 66.8273 34.3866 67.2985 34.3866H72.7082C74.154 34.3866 75.4293 34.6628 76.534 35.2151C77.6549 35.7675 78.5159 36.5472 79.117 37.5544C79.7343 38.5454 80.043 39.6826 80.043 40.966V44.8161C80.043 46.0995 79.7343 47.2448 79.117 48.2521C78.4997 49.2593 77.6305 50.0472 76.5096 50.6158C75.4049 51.1681 74.1378 51.4443 72.7082 51.4443H67.2985ZM72.4645 48.6419C73.8778 48.6419 74.95 48.3252 75.6811 47.6916C76.4121 47.0418 76.7777 46.0914 76.7777 44.8405V40.9172C76.7777 39.6988 76.4121 38.7729 75.6811 38.1393C74.95 37.5057 73.8778 37.1889 72.4645 37.1889H68.9311V48.6419H72.4645ZM82.9776 36.6041C82.9776 35.8406 83.2619 35.2476 83.8305 34.8252C84.3991 34.3866 85.2033 34.1673 86.243 34.1673V49.2268C86.243 50.0066 85.9587 50.6076 85.3901 51.03C84.8215 51.4524 84.0173 51.6636 82.9776 51.6636V36.6041ZM96.283 51.6636C94.8209 51.6636 93.5457 51.4849 92.4572 51.1275C91.3688 50.7701 90.5321 50.2665 89.9473 49.6167C89.3787 48.9506 89.0944 48.1789 89.0944 47.3017C89.0944 45.9696 89.996 45.3035 91.7993 45.3035C91.8643 46.5382 92.2785 47.4723 93.042 48.1058C93.8218 48.7394 94.9103 49.0562 96.3074 49.0562C97.4608 49.0562 98.3543 48.8613 98.9879 48.4714C99.6214 48.0652 99.9382 47.5048 99.9382 46.79C99.9382 46.3188 99.8164 45.9371 99.5727 45.6447C99.329 45.336 98.9148 45.068 98.3299 44.8405C97.7451 44.5968 96.8922 44.3532 95.7713 44.1095C94.1792 43.7358 92.9202 43.3216 91.9942 42.8667C91.0845 42.4118 90.4265 41.8676 90.0204 41.234C89.6143 40.5842 89.4112 39.7801 89.4112 38.8216C89.4112 37.8956 89.6792 37.0833 90.2153 36.3848C90.7677 35.6862 91.5393 35.142 92.5303 34.7521C93.5375 34.3622 94.691 34.1673 95.9906 34.1673C97.2415 34.1673 98.3543 34.3379 99.329 34.679C100.32 35.0039 101.092 35.4669 101.644 36.068C102.213 36.6691 102.497 37.3595 102.497 38.1393C102.497 39.3414 101.628 39.9669 99.8895 40.0156C99.792 38.8947 99.4346 38.0743 98.8173 37.5544C98.2 37.0346 97.2577 36.7747 95.9906 36.7747C94.9021 36.7747 94.0655 36.9534 93.4807 37.3108C92.8958 37.6682 92.6034 38.1718 92.6034 38.8216C92.6034 39.2765 92.7171 39.6582 92.9446 39.9669C93.172 40.2593 93.5538 40.5192 94.0899 40.7467C94.626 40.9579 95.3895 41.1772 96.3805 41.4046C98.0538 41.7783 99.3778 42.2006 100.352 42.6718C101.327 43.1266 102.034 43.6871 102.473 44.3532C102.911 45.003 103.13 45.8071 103.13 46.7656C103.13 47.7566 102.846 48.6257 102.278 49.373C101.725 50.104 100.929 50.6726 99.8895 51.0788C98.866 51.4686 97.6639 51.6636 96.283 51.6636ZM105.478 35.873C105.478 35.4669 105.632 35.1176 105.941 34.8252C106.266 34.5328 106.656 34.3866 107.111 34.3866H117.979C117.979 35.3613 117.808 36.0761 117.467 36.531C117.142 36.9696 116.606 37.1889 115.859 37.1889H108.743V41.429H115.225C115.225 42.4037 115.055 43.1185 114.714 43.5734C114.389 44.012 113.853 44.2313 113.105 44.2313H108.743V48.6419H116.371C117.102 48.6419 117.63 48.8694 117.955 49.3242C118.296 49.7629 118.466 50.4696 118.466 51.4443H107.111C106.656 51.4443 106.266 51.3062 105.941 51.03C105.632 50.7376 105.478 50.3802 105.478 49.9578V35.873Z" fill="black"/>
<defs>
<linearGradient id="paint0_linear_1_39" x1="59.7857" y1="6.92537" x2="59.7857" y2="25.791" gradientUnits="userSpaceOnUse">
<stop stop-color="#FCD361"/>
<stop offset="1" stop-color="#F1A535"/>
</linearGradient>
</defs>
</svg>
