<svg width="32" height="32" viewBox="0 0 32 32" fill="none" xmlns="http://www.w3.org/2000/svg">
<path d="M29.9999 17V25C29.9999 25.2652 29.8946 25.5196 29.7071 25.7071C29.5195 25.8947 29.2652 26 28.9999 26H20.9999C20.7347 26 20.4804 25.8947 20.2928 25.7071C20.1053 25.5196 19.9999 25.2652 19.9999 25C19.9999 24.7348 20.1053 24.4804 20.2928 24.2929C20.4804 24.1054 20.7347 24 20.9999 24H26.5862L16.9999 14.4138L12.7074 18.7075C12.6146 18.8005 12.5043 18.8742 12.3829 18.9246C12.2615 18.9749 12.1314 19.0008 11.9999 19.0008C11.8685 19.0008 11.7384 18.9749 11.617 18.9246C11.4956 18.8742 11.3853 18.8005 11.2924 18.7075L2.29245 9.70751C2.10481 9.51987 1.99939 9.26537 1.99939 9.00001C1.99939 8.73464 2.10481 8.48015 2.29245 8.29251C2.48009 8.10487 2.73458 7.99945 2.99995 7.99945C3.26531 7.99945 3.51981 8.10487 3.70745 8.29251L11.9999 16.5863L16.2924 12.2925C16.3853 12.1995 16.4956 12.1258 16.617 12.0754C16.7384 12.0251 16.8685 11.9992 16.9999 11.9992C17.1314 11.9992 17.2615 12.0251 17.3829 12.0754C17.5043 12.1258 17.6146 12.1995 17.7074 12.2925L27.9999 22.5863V17C27.9999 16.7348 28.1053 16.4804 28.2928 16.2929C28.4804 16.1054 28.7347 16 28.9999 16C29.2652 16 29.5195 16.1054 29.7071 16.2929C29.8946 16.4804 29.9999 16.7348 29.9999 17Z" fill="#0E0E0E"/>
</svg>
